PathFileType	4	(X/Y/Z)	./resultDataOpenSim/trcMotMarkerGrf/sub10/qtm-13-05.trc
DataRate	CameraRate	NumFrames	NumMarkers	Units	OrigDataRate	OrigDataStartFrame	OrigNumFrames
250.000000	250.000000	10	24	m	250.000000	185	491
Frame#	Time	L.Toe.Tip			R.Toe.Tip			L.Ankle.Lat			R.Ankle.Lat			L.Ankle.Med			R.Ankle.Med			L.Heel			R.Heel			L.Knee.Lat			R.Knee.Lat			L.Knee.Med			R.Knee.Med			L.Thigh.Upper			R.Thigh.Upper			L.ASIS			R.ASIS			V.Sacral			L.Acromium			R.Acromium			C7			L.Elbow			R.Elbow			L.Wrist.Lat			R.Wrist.Lat
		X1	Y1	Z1	X2	Y2	Z2	X3	Y3	Z3	X4	Y4	Z4	X5	Y5	Z5	X6	Y6	Z6	X7	Y7	Z7	X8	Y8	Z8	X9	Y9	Z9	X10	Y10	Z10	X11	Y11	Z11	X12	Y12	Z12	X13	Y13	Z13	X14	Y14	Z14	X15	Y15	Z15	X16	Y16	Z16	X17	Y17	Z17	X18	Y18	Z18	X19	Y19	Z19	X20	Y20	Z20	X21	Y21	Z21	X22	Y22	Z22	X23	Y23	Z23	X24	Y24	Z24

185	0.736	0.0014682023	-0.0084904869	-0.1087944	-0.5537961	0.11572578	0.019183534	-0.12840668	0.017970461	-0.15053352	-0.57783321	0.26036429	0.015890032	-0.13208861	0.040021621	-0.065815805	-0.53190156	0.22894936	-0.052900787	-0.19988345	-0.010791599	-0.11567953	-0.60727368	0.28383627	-0.047459754	-0.042453153	0.39011001	-0.17995564	-0.23789848	0.38224918	0.096041742	-0.043849128	0.3796235	-0.059230224	-0.1714977	0.35166726	-0.020058201	-0.14330397	0.7663395	-0.26106828	-0.25757557	0.76838517	0.10634349	-0.12130968	0.87274455	-0.17621121	-0.16953049	0.86584585	0.046347111	-0.34010795	0.88332576	-0.10611608	-0.19509342	1.335566	-0.24096188	-0.2315098	1.3391546	0.074989268	-0.29142628	1.3651912	-0.096837899	-0.35297322	1.044638	-0.31529631	-0.26907891	0.98805607	0.14143068	-0.31382699	0.80926913	-0.35528454	-0.060272329	0.85921941	0.18135135
186	0.74	0.0014492077	-0.0085230006	-0.10878672	-0.53898434	0.12059788	0.024096534	-0.12832415	0.017899041	-0.1505361	-0.56266445	0.26486916	0.017554043	-0.13185443	0.039935404	-0.06573575	-0.51699717	0.23187997	-0.051008964	-0.19993346	-0.010619294	-0.11561491	-0.59227631	0.28712998	-0.046423584	-0.040158533	0.38872244	-0.17991123	-0.22261509	0.38303102	0.098320696	-0.041669022	0.37844025	-0.058899261	-0.15711869	0.35282719	-0.018457107	-0.13951852	0.76578808	-0.26179958	-0.25064113	0.76787489	0.10578886	-0.11650951	0.87285006	-0.17750745	-0.1642772	0.86584803	0.046438229	-0.33407269	0.88166701	-0.1060827	-0.18791408	1.3350953	-0.24092785	-0.22516678	1.3389063	0.07475146	-0.28486087	1.3650749	-0.097152292	-0.34423751	1.0434811	-0.31677471	-0.26446248	0.98869412	0.14323853	-0.30162877	0.80899636	-0.3599538	-0.058253432	0.85808697	0.18927947
187	0.744	0.0014168478	-0.0085504194	-0.10878476	-0.523756	0.12507139	0.028637264	-0.1282475	0.017842092	-0.15055171	-0.54739806	0.26887238	0.019292054	-0.13164648	0.039896879	-0.065723735	-0.50198686	0.23463328	-0.049028473	-0.19998881	-0.010408325	-0.11559774	-0.57728267	0.29005475	-0.045107442	-0.03782	0.38738348	-0.17987056	-0.20727857	0.38413934	0.10051672	-0.039858636	0.37727358	-0.058633296	-0.1427097	0.35419218	-0.016886953	-0.13575208	0.76531107	-0.2624664	-0.24431844	0.76739785	0.10561967	-0.11179242	0.87297318	-0.17889553	-0.15911284	0.86590403	0.046632116	-0.32797604	0.88034571	-0.10585321	-0.18077	1.3346394	-0.24084035	-0.2188883	1.3387336	0.074558064	-0.27838054	1.365025	-0.097370534	-0.33547289	1.0423723	-0.31834925	-0.25999222	0.98945972	0.1453683	-0.28938219	0.80888362	-0.36467647	-0.056440885	0.85720306	0.19739913
188	0.748	0.0013737649	-0.0085677792	-0.10878665	-0.50810159	0.12910175	0.03280267	-0.12817743	0.017822609	-0.15058602	-0.53211562	0.27234071	0.021109565	-0.13145586	0.039922059	-0.065753542	-0.48689981	0.23720378	-0.046954006	-0.200046	-0.01016565	-0.11560675	-0.56237765	0.29262023	-0.043489306	-0.035380643	0.38619323	-0.17981158	-0.19194966	0.38557463	0.10261764	-0.038203792	0.37618095	-0.058375958	-0.12817428	0.35579226	-0.015355299	-0.13196874	0.76491318	-0.26304641	-0.23839472	0.76694599	0.10564466	-0.10715277	0.87311201	-0.1803699	-0.15402585	0.86598279	0.046918996	-0.32246442	0.87941022	-0.10551099	-0.17362119	1.3341956	-0.24067614	-0.21266231	1.3386416	0.074408441	-0.27194434	1.3650253	-0.097506397	-0.32667905	1.041314	-0.32001662	-0.25568562	0.9903237	0.14772402	-0.27711811	0.80893698	-0.36945535	-0.054922751	0.85656649	0.20569102
189	0.752	0.001325771	-0.0085748647	-0.1087918	-0.49203966	0.13265963	0.036589189	-0.12810552	0.017846122	-0.15063459	-0.51685648	0.27529609	0.023080468	-0.13124884	0.040019727	-0.065786589	-0.47175137	0.23957474	-0.044773514	-0.20010088	-0.0098957972	-0.11562048	-0.54757026	0.29481241	-0.041581175	-0.032720921	0.38523629	-0.17968771	-0.17666678	0.38731812	0.10461116	-0.036494162	0.37520083	-0.058106412	-0.11341773	0.35764402	-0.013860605	-0.12812778	0.76458012	-0.26353511	-0.2325678	0.76652161	0.1056327	-0.10258109	0.87324653	-0.18190735	-0.14899314	0.86605199	0.047282474	-0.31773741	0.87872305	-0.10552916	-0.16644124	1.3337601	-0.24042453	-0.20646531	1.3386208	0.074285975	-0.26549689	1.3650375	-0.097639547	-0.31785725	1.0403138	-0.32177654	-0.25151815	0.99129703	0.15024691	-0.26476924	0.80916958	-0.37432901	-0.053733108	0.85617789	0.21412768
190	0.756	0.0012772874	-0.0085761309	-0.10880234	-0.47563109	0.1357065	0.039993135	-0.12802213	0.017903536	-0.15068418	-0.50161649	0.27776549	0.025264307	-0.13098169	0.040184083	-0.065790418	-0.45652594	0.24172739	-0.04249646	-0.2001458	-0.0095989499	-0.11561172	-0.53282157	0.29661108	-0.039414582	-0.029758933	0.38455003	-0.17950142	-0.16144254	0.38933564	0.1064781	-0.034572545	0.37433661	-0.057832398	-0.098455656	0.35975493	-0.012430746	-0.12421268	0.7642802	-0.26393355	-0.22672468	0.76613113	0.10552551	-0.098065629	0.87334408	-0.18348048	-0.14398609	0.86608501	0.047695446	-0.31356004	0.87815994	-0.10638219	-0.15925634	1.3333393	-0.24010657	-0.2002818	1.3386563	0.074168187	-0.25901102	1.3650331	-0.097826151	-0.30901243	1.0393807	-0.32362737	-0.24746922	0.99244434	0.15289816	-0.25228817	0.80958807	-0.37930519	-0.05281011	0.85604949	0.22269076
191	0.76	0.001229172	-0.0085756322	-0.1088231	-0.45894852	0.13821158	0.043024125	-0.12792907	0.017979508	-0.15072251	-0.48632475	0.27975786	0.027664294	-0.13064654	0.040395159	-0.065766159	-0.4411816	0.24364138	-0.040164612	-0.20016401	-0.0092734988	-0.11553568	-0.51809202	0.29801108	-0.037013074	-0.026537299	0.38410964	-0.1792985	-0.14628545	0.39158741	0.10820338	-0.032375143	0.37355823	-0.057570161	-0.083409961	0.36212459	-0.011120927	-0.12022937	0.76397637	-0.26424835	-0.22088466	0.76576982	0.10535418	-0.093599003	0.87337289	-0.18507053	-0.13897612	0.86606428	0.048120619	-0.3096096	0.87769413	-0.10780828	-0.15212914	1.3329459	-0.23976484	-0.1941093	1.3387357	0.074043429	-0.25249959	1.3650274	-0.097980286	-0.30015326	1.038517	-0.32556309	-0.24352786	0.99384469	0.15564311	-0.23969365	0.81019107	-0.38436055	-0.052061675	0.85619304	0.23135504
192	0.764	0.0011811605	-0.0085728212	-0.10886057	-0.44204333	0.14017453	0.045711238	-0.12784081	0.018055188	-0.15074371	-0.47091427	0.28127316	0.030239825	-0.13029773	0.040629013	-0.065759843	-0.42569573	0.24529309	-0.037821675	-0.20013389	-0.0089213261	-0.11533825	-0.503358	0.29901112	-0.034388938	-0.023186896	0.38384044	-0.17911847	-0.13121258	0.39403683	0.10978088	-0.030012786	0.37281347	-0.057381494	-0.068407262	0.36473867	-0.0099771864	-0.11618649	0.76363977	-0.2645019	-0.21510211	0.76541357	0.1051499	-0.089186852	0.8733109	-0.18666258	-0.13394043	0.865979	0.048521175	-0.30570394	0.87734083	-0.10885554	-0.14510299	1.3325832	-0.23942542	-0.18794952	1.3388529	0.073913073	-0.2459645	1.3650458	-0.09804272	-0.29128913	1.0377177	-0.32757694	-0.23967538	0.99549923	0.15845016	-0.22703437	0.81097816	-0.38946887	-0.051456646	0.85660441	0.24007276
193	0.768	0.0011360195	-0.0085640266	-0.10892054	-0.42493755	0.14162113	0.048095846	-0.12776754	0.01810972	-0.1507439	-0.45541321	0.28230643	0.032919771	-0.12999441	0.040870392	-0.065822971	-0.41011299	0.24666298	-0.035497107	-0.20005329	-0.0085547476	-0.11500979	-0.4886114	0.29959446	-0.031564247	-0.019806509	0.38364595	-0.17898005	-0.11624263	0.39665367	0.11120765	-0.027652679	0.3720806	-0.057340655	-0.05349824	0.36757215	-0.0090095493	-0.11209508	0.76324935	-0.26472647	-0.20939912	0.76504071	0.10492923	-0.084849787	0.87314687	-0.18822917	-0.12886978	0.86582373	0.048874331	-0.30171874	0.87709652	-0.10882425	-0.1381724	1.3322431	-0.23908052	-0.1818027	1.3390054	0.073784807	-0.23936512	1.3650622	-0.098223884	-0.28242474	1.0369756	-0.32966833	-0.23587746	0.99728814	0.16128448	-0.21434697	0.81195093	-0.39460961	-0.051025681	0.85726659	0.2487862
194	0.772	0.0011013965	-0.008546962	-0.10900438	-0.40760594	0.1426018	0.050235582	-0.12769435	0.018133643	-0.15071634	-0.43991028	0.28285439	0.035625264	-0.12970085	0.041116792	-0.065944164	-0.39452498	0.24774633	-0.0332328	-0.19996076	-0.0081930701	-0.11464022	-0.47385268	0.29973682	-0.028599991	-0.016392951	0.38343073	-0.17889592	-0.10138726	0.39941509	0.11247884	-0.025264579	0.37139711	-0.057430546	-0.038675632	0.37060537	-0.0081945216	-0.10798792	0.76277985	-0.26494402	-0.20373972	0.76465791	0.10470789	-0.080601948	0.872878	-0.18972477	-0.12376288	0.86559999	0.049175762	-0.29741424	0.87691968	-0.10787921	-0.13130662	1.331916	-0.23871252	-0.17566666	1.3391869	0.07366564	-0.2326787	1.3650121	-0.098757667	-0.27355985	1.0362853	-0.33184309	-0.2320981	0.99907254	0.16410512	-0.2016417	0.8131073	-0.39976367	-0.050806903	0.85815776	0.25745092
